<?xml version="1.0" standalone="no"?>
<!DOCTYPE svg PUBLIC "-//W3C//DTD SVG 20010904//EN"
 "http://www.w3.org/TR/2001/REC-SVG-20010904/DTD/svg10.dtd">
<svg version="1.0" xmlns="http://www.w3.org/2000/svg"
 width="1280.000000pt" height="720.000000pt" viewBox="0 0 1280.000000 720.000000"
 preserveAspectRatio="xMidYMid meet">
<metadata>
Created by potrace 1.16, written by Peter Selinger 2001-2019
</metadata>
<g transform="translate(0.000000,720.000000) scale(0.100000,-0.100000)"
fill="#000000" stroke="none">
<path d="M0 3600 l0 -3600 477 2 478 3 2 26 c1 14 9 52 18 83 9 32 15 60 12
62 -2 3 0 26 5 52 5 26 16 83 24 127 8 44 16 85 18 90 1 6 8 44 15 85 7 41 19
102 27 135 7 33 21 103 30 155 9 52 27 147 41 210 13 63 28 135 33 160 4 25
11 56 14 70 9 34 35 172 46 245 11 65 23 135 38 205 5 25 15 74 22 110 7 36
14 72 16 80 2 8 10 44 19 80 9 35 18 86 20 112 9 108 61 263 92 275 9 4 10 10
2 25 -6 11 -8 22 -5 26 3 3 6 0 6 -6 0 -7 4 -12 10 -12 5 0 7 7 4 15 -5 12 2
15 34 15 34 0 41 -4 55 -32 8 -17 13 -43 10 -57 -3 -14 -5 -35 -5 -46 1 -11
-3 -33 -8 -50 -5 -16 -14 -75 -20 -130 -9 -87 -13 -103 -35 -120 -28 -23 -43
-78 -27 -98 7 -8 7 -18 2 -27 -5 -8 -5 -21 0 -31 5 -9 7 -19 3 -22 -9 -10 -13
-51 -17 -217 -3 -85 -6 -177 -9 -205 -2 -27 0 -64 4 -82 4 -18 4 -35 -1 -38
-4 -2 -8 -36 -9 -75 -2 -67 -1 -70 21 -70 34 0 45 11 52 50 15 78 29 121 40
117 13 -4 13 -37 3 -119 -7 -57 -7 -58 20 -64 40 -10 50 -24 48 -67 -1 -20 2
-37 6 -37 5 0 9 -9 9 -20 0 -11 6 -20 13 -20 18 0 42 18 34 26 -3 4 -13 1 -22
-6 -13 -11 -15 -9 -13 14 1 14 6 26 11 26 4 0 5 5 2 10 -4 6 -11 8 -16 5 -5
-4 -9 3 -9 14 0 16 6 21 28 20 24 0 25 -1 7 -9 -15 -6 -16 -9 -4 -9 9 -1 19 2
23 6 4 4 22 6 41 5 18 -2 36 1 39 6 5 9 -17 132 -27 149 -3 5 -2 15 3 23 7 12
13 12 27 4 15 -10 18 -27 19 -110 0 -55 -5 -137 -13 -184 -8 -47 -17 -101 -19
-120 -32 -221 -70 -440 -131 -753 -5 -28 -55 -69 -78 -64 -14 3 -6 39 12 60
13 13 13 17 3 17 -11 0 -11 3 -2 12 15 15 16 58 1 58 -8 0 -8 4 1 15 6 8 9 19
5 25 -3 5 -1 10 5 10 7 0 9 17 6 45 -2 26 0 45 6 45 6 0 8 11 6 25 -3 13 -1
22 3 19 5 -3 9 -1 9 5 0 5 -6 12 -12 14 -8 4 -7 6 3 6 16 1 24 47 10 55 -3 2
-4 27 -3 55 3 44 7 50 24 48 27 -3 35 21 11 30 -10 4 -27 16 -38 26 -11 11
-14 17 -7 13 7 -5 12 -1 12 11 0 13 3 14 8 6 7 -10 12 -10 27 1 17 12 18 17 7
37 -14 27 -12 50 6 72 9 10 10 17 2 22 -5 3 -10 1 -10 -5 0 -6 -4 -9 -10 -5
-5 3 -1 14 10 25 21 21 25 36 12 44 -12 7 -8 36 7 64 13 24 5 54 -9 32 -5 -7
-8 -2 -8 14 0 14 4 23 9 20 5 -3 9 0 9 7 0 7 -10 9 -25 7 -20 -4 -24 -1 -22
15 1 11 -4 22 -12 25 -10 3 -12 0 -8 -11 4 -10 -1 -18 -14 -22 -24 -8 -40 -36
-34 -64 2 -11 0 -23 -6 -26 -12 -8 -12 -45 1 -45 6 0 10 -5 10 -11 0 -6 -7 -9
-15 -5 -17 6 -21 -9 -5 -19 6 -3 10 -12 10 -18 0 -8 -3 -8 -9 1 -10 17 -21
-16 -17 -53 2 -15 -1 -22 -7 -18 -7 4 -8 -1 -3 -12 4 -10 2 -21 -4 -25 -13 -8
-22 -90 -10 -90 4 0 3 -11 -3 -25 -7 -14 -16 -25 -20 -25 -5 0 -1 -7 8 -16 14
-15 14 -17 -1 -29 -9 -6 -14 -17 -10 -23 4 -7 2 -12 -4 -12 -7 0 -10 -7 -6
-15 3 -10 -1 -15 -12 -15 -15 0 -15 -2 -2 -11 11 -8 12 -12 3 -16 -17 -6 -17
-26 0 -20 10 4 13 -2 9 -19 -2 -13 -7 -22 -11 -20 -16 10 -33 -14 -34 -48 -1
-20 -4 -36 -7 -36 -11 0 -10 -51 1 -72 10 -18 9 -20 -5 -15 -16 6 -21 -8 -16
-42 1 -8 -4 -18 -12 -23 -10 -7 -10 -11 -1 -15 14 -5 8 -48 -10 -70 -7 -10
375 -13 1906 -13 1910 0 1915 0 1910 20 -5 18 0 20 45 20 27 0 78 -9 113 -19
73 -22 198 -26 225 -7 13 10 14 16 5 34 -6 12 -19 22 -28 22 -9 0 -13 3 -10 7
4 3 2 12 -4 19 -8 9 -6 11 9 7 15 -3 22 2 29 24 6 15 9 38 7 50 -2 13 1 23 6
23 6 0 5 8 -2 20 -10 15 -10 22 0 32 6 6 12 26 12 44 0 18 4 34 9 36 13 5 22
188 9 188 -7 0 -8 13 -5 35 3 21 2 33 -4 30 -5 -4 -9 1 -9 10 0 9 -4 14 -9 11
-11 -7 -23 48 -15 69 4 10 0 15 -10 15 -9 0 -16 8 -16 20 0 11 4 20 8 20 5 0
9 14 9 30 0 17 -4 30 -9 30 -5 0 -6 5 -3 11 4 6 9 38 11 72 2 34 6 76 9 94 3
17 2 34 -3 37 -9 5 -25 -77 -23 -121 1 -18 -4 -22 -22 -19 -12 3 -28 5 -35 5
-8 1 -11 10 -8 27 4 19 1 24 -10 20 -7 -3 -14 -1 -14 4 0 5 9 12 20 15 23 7
26 21 8 28 -10 3 -10 7 0 19 8 10 9 19 4 22 -17 10 21 136 41 136 5 0 6 4 3 9
-3 4 1 17 9 27 13 18 14 18 21 1 5 -15 9 -16 15 -5 13 19 11 28 -6 28 -8 0
-15 4 -15 10 0 5 7 7 15 4 11 -5 15 1 15 18 0 39 20 88 37 88 8 0 11 5 8 10
-3 6 -1 10 5 10 7 0 8 6 2 18 -11 21 -6 94 9 139 6 18 8 37 5 42 -4 5 0 12 6
14 10 4 9 8 -2 16 -13 9 -13 11 0 16 12 4 15 21 13 68 -1 34 -2 62 -3 62 -2 0
-2 112 -1 134 1 13 27 12 79 -4 18 -6 21 -4 16 9 -5 12 -2 15 10 10 19 -7 21
-30 4 -37 -7 -3 -3 -6 10 -6 13 -1 20 -5 17 -11 -3 -6 4 -10 17 -10 16 0 19
-3 10 -9 -11 -6 -9 -9 7 -14 14 -3 18 -11 15 -25 -4 -12 0 -22 10 -25 9 -4 16
-16 16 -27 0 -11 6 -20 13 -20 6 0 18 -13 25 -29 13 -29 46 -54 36 -27 -3 8 4
16 15 19 17 4 21 0 21 -21 0 -15 7 -36 15 -46 8 -11 15 -34 16 -50 0 -25 2
-27 8 -11 7 16 9 14 14 -13 7 -34 36 -45 38 -14 0 15 1 15 8 -2 6 -15 10 -16
16 -7 6 10 9 10 15 1 9 -15 56 28 52 47 -2 7 4 13 13 13 17 0 20 -16 5 -25
-15 -10 -12 -28 4 -22 8 3 20 -1 27 -9 13 -15 39 -15 52 1 4 6 21 -5 41 -26
31 -33 41 -37 102 -43 156 -16 278 -24 290 -19 6 2 15 0 18 -5 3 -6 15 -8 26
-5 11 3 20 0 20 -6 0 -6 5 -11 11 -11 5 0 7 5 4 10 -3 6 -1 10 4 10 6 0 11 -5
11 -10 0 -6 11 -3 25 6 23 15 25 15 25 0 0 -18 15 -21 25 -6 5 8 11 7 21 -1 8
-6 25 -9 39 -7 14 3 30 -1 36 -8 6 -8 15 -11 20 -8 5 3 14 2 20 -2 8 -4 7 -9
-2 -15 -11 -7 -9 -9 7 -9 11 0 24 -4 30 -9 11 -11 104 8 104 21 0 4 5 8 11 8
7 0 9 -11 5 -30 -4 -22 -2 -30 9 -30 7 0 16 8 18 18 3 10 5 5 6 -13 2 -28 3
-29 11 -8 10 24 34 31 45 13 3 -5 -1 -10 -9 -10 -9 0 -18 -13 -22 -35 -3 -19
-11 -35 -18 -35 -6 0 2 -7 18 -15 20 -10 33 -12 39 -6 7 7 15 5 24 -7 10 -13
13 -13 11 -2 -2 9 6 16 20 18 15 2 22 9 18 17 -6 18 12 32 49 38 l30 4 -32 2
c-39 1 -45 21 -7 21 23 0 24 1 10 16 -9 8 -16 20 -16 25 0 15 17 10 24 -6 3
-8 12 -15 21 -15 20 0 19 10 -2 27 -10 7 -13 13 -8 12 28 -4 55 2 55 12 0 6
-6 9 -13 6 -16 -6 -41 20 -27 28 6 3 10 1 10 -4 0 -13 39 -14 58 -2 7 4 12 14
10 22 -2 10 5 13 25 12 17 -1 27 3 27 12 0 8 -7 11 -19 8 -10 -3 -22 0 -25 6
-7 11 6 15 33 12 7 -2 11 1 8 6 -3 4 1 14 9 21 11 10 14 10 14 0 0 -7 7 -2 16
10 9 13 22 21 28 19 7 -3 19 3 27 14 8 12 20 17 31 13 11 -3 20 1 24 11 6 14
8 14 20 -2 13 -16 14 -15 8 10 -6 27 1 32 53 30 7 -1 11 2 9 6 -7 11 6 24 41
44 24 13 32 14 36 5 3 -7 6 -3 6 10 1 12 7 22 15 22 8 0 17 7 20 16 4 9 9 14
13 11 3 -4 12 1 19 11 8 10 13 12 14 5 0 -18 13 -16 37 7 20 18 22 18 26 2 3
-12 5 -11 6 6 0 12 -3 22 -9 22 -5 0 -10 4 -10 9 0 14 29 41 43 41 7 0 6 -4
-3 -10 -12 -8 -9 -10 12 -10 15 0 30 -5 33 -10 3 -6 -4 -10 -16 -10 -22 0 -22
-1 -4 -13 12 -9 14 -16 7 -21 -6 -4 -9 -13 -6 -21 4 -10 0 -13 -14 -10 -12 2
-26 -3 -33 -11 -13 -16 -44 -20 -34 -4 3 5 1 10 -4 10 -16 0 -8 -44 9 -51 8
-4 18 -2 22 4 4 8 14 7 30 0 18 -9 19 -12 6 -12 -24 -1 -23 -22 2 -28 21 -6
28 -23 9 -23 -6 0 -8 -7 -5 -16 4 -10 2 -13 -6 -8 -7 5 -9 2 -5 -8 4 -11 -1
-18 -14 -21 -16 -4 -18 -11 -13 -31 3 -14 7 -37 8 -50 1 -19 4 -22 18 -15 22
12 28 11 28 -2 0 -5 -4 -7 -10 -4 -6 3 -10 -1 -10 -9 0 -9 6 -16 14 -16 8 0
16 -7 20 -15 3 -8 0 -15 -7 -15 -9 0 -9 -2 0 -8 16 -10 -36 -72 -60 -72 -10 0
-15 -5 -12 -10 4 -6 15 -8 26 -5 11 4 19 2 19 -4 0 -6 -5 -11 -11 -11 -6 0 -9
-7 -5 -15 3 -8 0 -15 -6 -15 -9 0 -9 -3 0 -12 10 -10 15 -10 21 0 7 11 9 11
14 -1 4 -10 -2 -17 -16 -21 -19 -5 -20 -8 -7 -17 12 -8 12 -12 2 -16 -8 -3
-10 -9 -4 -16 15 -19 21 -57 10 -63 -5 -3 -7 -12 -4 -20 3 -8 1 -14 -5 -14 -6
0 -22 -9 -36 -20 -14 -11 -22 -20 -18 -20 5 0 17 7 27 17 17 15 18 15 18 -5 0
-12 -4 -22 -10 -22 -5 0 -7 -16 -5 -36 3 -22 1 -33 -5 -29 -5 3 -10 14 -10 23
0 15 -2 15 -10 2 -7 -11 -4 -21 15 -37 31 -27 31 -30 3 -36 l-23 -4 23 -8 c15
-5 21 -13 18 -22 -3 -8 -6 -19 -6 -24 0 -6 -4 -7 -10 -4 -5 3 -10 -3 -10 -14
0 -12 -6 -21 -12 -21 -7 0 -4 -7 7 -16 11 -8 21 -24 21 -35 1 -18 0 -18 -16
-4 -9 8 -20 12 -23 9 -4 -4 -13 -1 -22 6 -13 11 -15 9 -15 -12 0 -23 30 -58
50 -58 6 0 10 -5 10 -12 0 -9 3 -9 12 0 7 7 17 12 23 12 5 0 5 -4 -2 -8 -7 -4
-13 -22 -15 -40 -2 -23 -7 -32 -20 -32 -14 0 -16 -6 -11 -31 3 -17 2 -34 -3
-38 -11 -8 -29 -36 -52 -81 -9 -19 -19 -37 -22 -40 -7 -7 -29 -43 -37 -60 -4
-8 -29 -46 -55 -83 -27 -38 -56 -84 -65 -103 -9 -19 -20 -34 -25 -34 -4 0 -8
-5 -8 -11 0 -6 -11 -25 -24 -42 -13 -18 -31 -44 -41 -59 l-17 -28 2586 0 2586
0 0 745 c-1 556 -4 745 -12 745 -9 0 -9 3 0 12 17 17 15 28 -4 28 -8 0 -13 -4
-10 -8 2 -4 -4 -9 -15 -9 -26 -2 -14 16 18 28 l26 10 -22 22 c-25 27 -27 37
-6 37 9 0 12 -6 9 -15 -4 -8 -1 -15 5 -15 7 0 11 14 9 35 -1 26 -6 34 -16 30
-7 -3 -18 -5 -23 -5 -6 0 -8 -4 -5 -9 4 -5 -4 -7 -16 -4 -18 5 -16 9 20 25 36
17 40 23 39 51 -1 20 -9 37 -22 44 -11 7 -15 12 -8 13 7 0 10 7 6 17 -5 14 -8
12 -15 -7 -5 -14 -5 -26 1 -29 5 -3 9 -18 9 -33 0 -23 -3 -25 -14 -13 -8 7
-14 23 -14 33 0 11 -5 22 -11 24 -16 5 1 36 24 44 12 4 27 13 35 20 11 12 11
14 -1 14 -9 0 -18 6 -21 13 -5 9 -7 9 -12 0 -8 -18 -27 -16 -21 1 8 19 -29 32
-47 17 -10 -9 -15 -8 -20 4 -3 8 -12 15 -21 15 -17 0 -20 16 -5 25 6 3 10 2
10 -3 0 -13 39 -22 46 -11 3 5 -2 9 -10 9 -22 0 -20 27 2 34 10 3 23 19 29 36
7 18 18 30 30 30 12 0 14 -3 6 -8 -6 -4 -16 -20 -22 -35 -6 -15 -17 -27 -25
-27 -11 0 -10 -6 7 -23 24 -25 38 -27 17 -2 -11 13 -8 14 18 9 l30 -6 -2 48
c-1 42 -4 49 -23 52 -13 2 -20 8 -17 16 5 13 -24 31 -34 21 -3 -3 0 -5 6 -5 7
0 12 -11 12 -25 0 -14 -4 -25 -9 -25 -11 0 -26 39 -23 58 2 6 -2 12 -8 12 -5
0 -10 -8 -10 -19 0 -10 -7 -24 -15 -31 -18 -15 -20 1 -3 18 9 9 8 12 -5 12 -9
0 -21 -9 -26 -19 -9 -15 -7 -20 11 -24 12 -4 27 -2 34 4 17 14 24 -34 8 -49
-19 -17 -29 -15 -14 3 10 12 10 15 -4 15 -9 0 -16 5 -16 11 0 5 -4 8 -9 4 -5
-3 -13 -1 -16 5 -4 6 -15 8 -25 5 -16 -5 -20 0 -30 42 -1 4 4 9 12 11 10 3 10
1 1 -5 -9 -6 -7 -12 7 -21 14 -8 20 -9 20 -1 0 16 29 41 40 34 5 -3 10 -1 10
4 0 6 -7 11 -15 11 -14 0 -20 13 -16 34 1 5 -4 13 -11 18 -10 6 -8 13 9 27 12
10 19 21 16 25 -4 3 2 6 13 7 15 1 14 3 -6 9 -24 9 -24 9 5 7 25 -2 30 -6 28
-24 -2 -18 2 -23 20 -22 16 0 18 2 7 7 -9 4 -15 21 -15 42 0 19 -4 38 -9 41
-4 4 -2 17 5 30 l14 24 3 -23 c3 -22 4 -22 33 -5 17 10 27 23 24 31 -3 7 3 21
12 30 16 16 15 17 -17 22 -22 3 -34 11 -36 23 -1 9 2 15 7 11 5 -3 7 -10 4
-15 -4 -5 3 -9 15 -9 19 0 20 1 5 24 -22 34 -2 68 35 60 18 -4 21 -3 11 4 -11
8 -11 10 0 14 9 3 6 11 -11 28 -17 17 -20 25 -11 28 7 2 17 -2 22 -9 7 -11 9
-11 9 3 0 9 -12 21 -27 27 l-28 11 27 -3 c24 -4 26 -1 26 30 0 18 -4 33 -9 33
-8 0 -13 -15 -10 -32 0 -5 -5 -8 -12 -8 -7 0 -13 9 -13 20 0 11 5 20 12 20 14
0 36 48 28 61 -3 5 -10 7 -15 4 -5 -3 -6 1 -3 9 3 9 9 14 13 12 4 -3 7 78 8
180 1 135 -2 184 -10 184 -8 0 -8 3 -2 8 14 10 15 115 1 124 -8 6 -8 8 1 8 7
0 11 17 11 45 0 25 -4 45 -10 45 -6 0 -8 -7 -4 -15 3 -8 1 -15 -3 -15 -21 0
-19 29 2 36 21 7 21 8 -7 19 -21 9 -25 14 -15 20 7 5 14 4 17 -3 7 -21 19 -13
17 11 -1 12 -3 28 -4 35 0 7 -11 17 -23 23 -22 9 -21 9 5 6 18 -3 27 0 27 9 0
17 -24 18 -51 4 -11 -6 -19 -7 -19 -1 0 9 47 26 63 23 10 -3 4 109 -7 126 -4
7 -3 12 1 12 5 0 9 9 9 20 0 11 -7 20 -15 20 -11 0 -10 4 5 16 16 13 16 15 2
10 -10 -3 -18 -1 -18 4 0 6 6 10 14 10 11 0 14 16 14 75 -1 69 -2 75 -19 70
-11 -4 -19 -2 -19 5 0 6 -7 18 -15 26 -8 8 -11 22 -7 32 6 16 7 16 10 0 2 -10
8 -18 13 -18 6 0 8 -4 4 -9 -6 -11 13 -26 22 -17 12 12 11 60 -3 73 -16 17
-19 43 -3 43 5 0 8 -4 4 -9 -3 -5 -1 -12 5 -16 14 -9 12 24 -3 39 -7 7 -19 11
-27 9 -12 -4 -13 -3 -1 5 7 5 10 15 6 21 -8 14 13 43 26 35 5 -3 9 6 9 20 0
14 -4 26 -10 26 -5 0 -10 9 -10 20 0 11 4 20 10 20 5 0 7 6 4 14 -4 12 -12 13
-31 5 -14 -5 -28 -7 -31 -4 -3 3 0 5 6 5 6 0 9 8 6 18 -4 12 -3 13 3 4 15 -19
53 40 53 83 0 32 -2 35 -31 35 -18 0 -28 4 -24 10 4 6 10 8 15 5 15 -9 40 7
40 26 0 23 -15 25 -24 4 -3 -8 -10 -15 -16 -15 -6 0 -9 4 -6 9 3 5 -1 11 -9
15 -8 3 -15 13 -15 22 0 13 3 14 15 4 12 -10 15 -9 15 8 0 11 8 22 19 25 12 3
19 13 19 31 0 31 -6 33 -16 6 -5 -12 -12 -16 -20 -11 -9 6 -6 15 15 36 19 18
24 29 16 32 -17 6 -17 33 0 33 7 0 4 7 -7 15 -18 13 -15 20 7 16 4 -1 7 42 5
94 -2 75 -5 90 -13 75 -6 -12 -14 -18 -17 -14 -4 3 2 16 13 28 17 18 18 21 5
24 -9 2 -16 7 -16 12 0 5 7 7 15 4 12 -5 14 6 12 69 -1 41 -4 71 -8 66 -3 -5
-13 -3 -23 4 -16 12 -16 13 5 14 29 2 34 10 20 27 -8 9 -8 16 -2 20 7 5 10
381 11 1121 l0 1115 -6400 0 -6400 0 0 -3600z m6840 2200 c3 -4 35 -9 71 -12
45 -2 72 -9 83 -21 23 -22 46 -22 46 2 0 16 5 17 41 11 23 -4 58 -5 79 -3 28
4 53 -2 94 -20 31 -15 63 -24 71 -21 9 4 15 0 15 -9 0 -16 44 -32 60 -22 6 4
10 1 10 -4 0 -6 7 -11 15 -11 8 0 15 -9 15 -19 0 -11 5 -23 10 -26 6 -3 10 1
10 9 0 9 4 16 9 16 21 0 41 -13 41 -27 0 -8 4 -12 9 -8 5 3 12 1 16 -5 4 -6 9
-8 13 -6 4 2 13 -2 20 -10 11 -12 10 -14 -3 -14 -8 0 -15 -4 -15 -10 0 -5 9
-10 20 -10 11 0 20 -5 20 -11 0 -6 8 -8 19 -4 26 8 52 -4 50 -24 -3 -29 1 -34
15 -22 18 15 31 -11 34 -71 1 -17 8 -28 16 -28 18 0 66 -43 66 -59 0 -6 7 -11
15 -11 10 0 15 -9 14 -27 -1 -20 -3 -22 -6 -9 -4 15 -7 16 -14 5 -8 -11 -13
-10 -29 10 -20 23 -25 18 -20 -23 1 -10 -3 -22 -10 -26 -8 -5 -6 -11 5 -20 11
-9 15 -9 15 -1 0 7 5 9 10 6 7 -4 7 -13 0 -26 -10 -18 -6 -23 14 -20 10 2 36
-19 36 -29 0 -5 -9 -6 -20 -3 -11 3 -20 0 -20 -6 0 -15 33 -14 48 1 10 10 12
5 8 -24 -2 -21 -1 -37 2 -37 24 4 35 -2 25 -12 -8 -8 -17 -8 -30 -1 -15 8 -22
7 -31 -9 -17 -26 -15 -32 8 -26 13 3 20 0 20 -9 0 -8 6 -11 15 -8 8 4 15 1 15
-5 0 -6 7 -11 15 -11 8 0 15 -4 15 -8 0 -4 -9 -8 -20 -8 -11 0 -20 7 -20 14 0
12 -3 12 -17 1 -11 -10 -14 -10 -9 -1 5 8 -2 12 -23 12 -17 0 -31 5 -31 10 0
6 -6 10 -12 10 -7 0 3 -14 22 -29 19 -16 32 -33 28 -37 -5 -4 -3 -13 3 -21 10
-11 14 -10 26 4 14 17 14 17 9 1 -4 -14 0 -18 17 -18 16 0 18 3 9 9 -11 7 -11
9 1 14 9 3 17 -2 20 -13 3 -11 2 -19 -2 -18 -19 2 -31 -3 -26 -12 3 -5 2 -10
-4 -10 -5 0 -13 5 -16 10 -3 6 -13 10 -21 10 -8 0 -14 -4 -14 -10 0 -5 7 -10
15 -10 8 0 15 -5 15 -11 0 -7 -16 -9 -47 -5 -223 25 -540 37 -592 20 -17 -5
-22 -4 -17 4 4 7 3 12 -3 12 -5 0 -11 -4 -13 -9 -3 -9 -185 -52 -228 -55 -14
0 -27 -4 -30 -7 -3 -3 -37 -16 -77 -27 -54 -17 -98 -22 -185 -22 -62 0 -132
-5 -155 -10 -34 -8 -63 -5 -150 14 -170 39 -339 49 -520 32 -84 -8 -157 -17
-162 -20 -5 -4 -31 -11 -58 -16 -26 -5 -58 -12 -70 -16 -19 -5 -23 -2 -23 15
0 12 6 24 13 27 7 2 14 21 15 42 2 20 7 41 12 46 6 6 10 18 10 27 0 15 55 115
71 129 3 3 14 20 24 38 11 17 23 32 27 32 4 0 8 7 8 15 0 8 3 15 8 15 4 0 25
23 47 51 41 52 131 146 203 211 48 44 160 118 178 118 7 0 14 4 16 9 5 13 120
91 134 91 7 0 33 11 58 25 25 14 52 25 61 25 9 0 37 8 63 18 103 41 120 45
192 51 82 7 182 2 190 -9z m827 -951 c54 -9 64 -15 69 -35 3 -13 10 -24 14
-24 5 0 15 -3 23 -6 9 -3 16 3 20 16 5 18 9 19 33 10 37 -14 55 -30 48 -42 -3
-5 -11 -5 -19 2 -11 9 -14 6 -17 -12 -2 -17 -8 -22 -23 -20 -11 2 -23 9 -27
15 -6 9 -8 9 -8 0 0 -22 -17 -14 -24 10 -6 20 -7 21 -17 4 -9 -15 -13 -16 -27
-5 -15 11 -15 11 -5 -3 7 -9 10 -19 5 -23 -4 -4 1 -12 10 -17 13 -7 15 -15 9
-32 -5 -13 -7 -79 -5 -146 3 -98 1 -127 -11 -144 -8 -12 -15 -34 -15 -49 0
-14 -5 -39 -11 -54 -15 -41 -2 -104 21 -104 10 0 22 -5 25 -10 4 -6 15 -8 26
-5 21 7 27 -10 7 -19 -10 -5 -10 -7 0 -12 6 -3 12 -12 12 -20 0 -8 8 -17 18
-21 37 -13 44 -25 25 -45 -14 -16 -15 -21 -4 -28 8 -4 21 -6 30 -3 9 4 5 -3
-8 -15 -13 -12 -31 -22 -40 -22 -9 0 -26 -7 -37 -15 -12 -8 -51 -17 -88 -21
-36 -4 -66 -10 -66 -13 0 -10 -341 -2 -415 11 -75 13 -129 35 -169 73 -13 12
-27 20 -30 17 -3 -3 -6 -1 -6 5 0 6 -11 21 -25 35 -13 14 -38 58 -55 99 -48
115 -60 139 -69 139 -19 0 -88 260 -75 288 4 9 8 19 9 22 12 49 19 66 33 77
22 17 32 16 32 -2 0 -8 10 -24 22 -35 22 -20 34 -80 16 -80 -5 0 -4 -9 2 -20
8 -14 7 -26 -1 -42 -10 -18 -9 -20 4 -15 10 4 18 -1 22 -14 11 -33 50 -66 71
-59 24 9 54 1 54 -14 0 -6 -10 -20 -22 -31 -18 -14 -19 -20 -8 -23 8 -3 21
-11 28 -19 12 -12 12 -17 -2 -32 -23 -25 -20 -48 6 -57 13 -4 28 -14 34 -22
15 -20 6 -52 -15 -53 -10 0 -8 -4 7 -10 13 -5 29 -6 34 -2 7 3 8 1 4 -5 -4 -7
-2 -12 3 -12 6 0 11 7 11 15 0 8 -7 15 -15 15 -8 0 -15 5 -15 11 0 6 7 9 15 5
8 -3 15 -1 15 5 0 6 6 9 13 6 6 -2 12 -17 12 -33 0 -22 5 -29 20 -29 22 0 34
40 16 58 -6 6 -5 14 4 23 10 10 11 23 5 44 -5 19 -5 30 1 30 6 0 8 4 5 9 -3 4
3 16 14 26 41 38 6 99 -42 74 -9 -5 -25 -9 -34 -9 -28 0 22 47 57 55 16 4 31
11 34 16 10 14 -39 11 -80 -7 -35 -14 -39 -14 -54 2 -9 9 -10 14 -3 10 8 -5
12 0 12 12 0 23 25 47 39 38 5 -3 21 8 35 24 14 17 29 30 33 29 21 -4 33 2 33
15 0 8 8 21 18 28 16 12 34 43 46 81 7 22 17 22 45 -4 22 -21 24 -21 57 -5 19
9 54 16 77 16 68 0 87 9 87 39 0 20 -2 23 -10 11 -8 -12 -10 -9 -10 12 0 14
-3 33 -6 42 -5 13 1 16 27 17 32 1 32 2 9 9 -25 8 -25 8 4 9 16 1 58 -4 93
-10z m-1259 -156 c17 -23 15 -129 -3 -181 -8 -23 -13 -53 -9 -66 3 -14 -1 -27
-10 -35 -10 -8 -14 -22 -10 -36 3 -13 0 -28 -9 -36 -8 -7 -12 -21 -10 -30 3
-9 -3 -24 -13 -34 -10 -9 -19 -26 -19 -37 -1 -11 -9 -25 -18 -30 -10 -5 -17
-14 -17 -21 0 -7 4 -6 10 3 6 9 10 10 10 3 0 -7 -9 -17 -20 -23 -11 -6 -20
-17 -20 -25 0 -8 -11 -26 -25 -41 -14 -15 -23 -34 -20 -41 2 -8 1 -12 -4 -9
-11 7 -71 -53 -71 -71 0 -7 -6 -10 -16 -6 -10 4 -17 -1 -21 -16 -3 -11 -10
-21 -15 -21 -5 0 -6 6 -2 13 4 6 -2 3 -14 -7 -12 -11 -22 -16 -22 -12 0 4 -10
1 -22 -5 -75 -40 -465 -56 -562 -23 -81 28 -132 115 -94 161 5 7 11 35 11 62
1 27 5 47 10 44 4 -2 7 1 7 8 0 6 9 19 19 28 11 9 24 41 30 71 6 30 14 66 18
80 4 14 6 46 5 72 -2 45 0 48 34 64 19 9 42 28 51 40 8 13 21 24 28 24 8 0 22
11 33 25 11 14 27 25 35 25 9 0 23 10 31 22 12 17 27 22 73 25 49 2 55 1 41
-10 -15 -12 -14 -15 15 -25 18 -6 48 -12 67 -13 19 -2 40 -5 45 -8 6 -3 42 -6
80 -6 43 -1 82 -7 102 -17 29 -15 32 -15 38 1 6 14 8 14 18 0 27 -35 44 -29
80 29 19 31 38 68 42 82 14 46 23 51 63 34 21 -8 43 -22 50 -31z m263 -152 c7
-20 14 -75 14 -123 1 -78 -1 -88 -17 -88 -22 0 -23 -13 -3 -34 16 -15 21 -31
7 -22 -4 2 -12 -7 -19 -20 -10 -22 -9 -23 12 -18 13 3 26 0 31 -7 5 -9 2 -10
-9 -6 -17 6 -24 -7 -9 -16 4 -2 2 -2 -5 -1 -18 5 -26 -15 -13 -31 10 -11 7
-15 -14 -21 -30 -7 -35 -24 -7 -24 11 0 28 -13 38 -30 19 -33 21 -34 42 -21
11 7 9 10 -8 16 -29 9 -27 23 4 21 14 0 25 -7 25 -15 0 -8 7 -11 19 -8 22 5
34 -14 24 -40 -5 -15 -3 -16 8 -5 20 18 27 15 22 -12 -3 -16 -10 -23 -19 -19
-20 8 -17 -7 7 -33 17 -18 19 -26 10 -42 -15 -27 -14 -39 1 -24 16 16 32 15
18 0 -6 -7 -17 -22 -24 -32 -7 -11 -18 -16 -25 -12 -9 6 -9 11 0 22 15 18 -4
19 -23 1 -7 -8 -31 -12 -56 -11 -36 3 -45 -1 -53 -20 -11 -24 -91 -58 -135
-58 -13 0 -24 -4 -24 -8 0 -11 -62 20 -75 37 -16 21 -39 7 -64 -37 -14 -26
-29 -40 -42 -40 -11 0 -22 -7 -25 -15 -4 -8 -10 -13 -14 -10 -4 3 -11 -3 -14
-12 -4 -9 -1 -20 6 -25 10 -5 8 -8 -5 -8 -10 0 -15 -4 -12 -10 3 -5 1 -10 -4
-10 -6 0 -11 -7 -11 -15 0 -12 -7 -14 -26 -9 -26 7 -26 6 -19 -37 4 -24 11
-48 16 -54 5 -5 9 -16 9 -25 0 -23 42 -37 111 -36 60 1 63 2 82 36 27 49 27
49 86 56 43 4 55 2 65 -11 11 -15 16 -16 37 -5 35 19 69 21 69 4 0 -8 7 -14
16 -14 8 0 13 -4 10 -8 -3 -5 6 -15 19 -22 14 -7 25 -18 25 -25 0 -23 60 -48
101 -41 26 4 49 1 68 -8 38 -20 105 -11 96 13 -12 30 -10 36 13 39 19 3 21 6
11 18 -9 11 -6 14 17 15 17 1 22 3 12 6 -13 3 -16 9 -10 21 5 9 7 30 6 47 -2
16 2 33 9 37 8 5 8 11 2 16 -13 9 -17 95 -4 103 5 3 37 5 69 4 33 -1 60 2 60
7 0 13 22 9 40 -7 13 -11 24 -13 51 -5 42 12 189 1 189 -14 0 -6 22 -12 51
-13 39 -1 56 -7 76 -27 27 -27 48 -33 58 -16 9 14 42 12 49 -2 5 -10 7 -10 12
0 9 18 22 15 29 -8 4 -11 10 -18 15 -15 5 3 11 1 15 -5 14 -23 27 -9 22 25 -6
34 -5 35 26 37 18 0 38 1 45 1 7 -1 11 5 8 12 -8 21 6 26 26 8 10 -9 18 -11
18 -6 0 6 6 13 14 16 9 4 14 -2 14 -19 0 -17 -6 -24 -19 -24 -11 0 -19 -4 -19
-9 0 -5 -9 -12 -19 -16 -13 -4 -17 -12 -14 -26 9 -33 22 -32 40 5 9 20 22 36
29 36 7 0 18 8 23 18 10 16 10 16 11 0 0 -10 4 -18 8 -18 4 0 8 -16 9 -36 1
-32 0 -34 -13 -17 -14 16 -14 15 -10 -17 3 -19 3 -29 0 -22 -10 21 -24 13 -22
-13 1 -14 8 -25 16 -25 11 0 10 -3 -2 -15 -8 -9 -13 -22 -10 -30 4 -8 1 -15
-6 -15 -6 0 -8 -5 -5 -11 4 -6 13 -8 20 -5 7 2 15 -4 18 -15 3 -10 2 -17 -3
-14 -4 3 -13 -2 -19 -9 -8 -9 -8 -17 -2 -20 5 -3 11 0 14 6 3 10 9 8 23 -4 10
-10 13 -18 7 -18 -6 0 -13 -9 -16 -20 -3 -13 -10 -18 -21 -14 -8 3 -21 0 -28
-8 -17 -17 -21 -58 -7 -58 8 0 8 -4 1 -12 -13 -16 -25 -91 -13 -84 4 3 6 -5 4
-19 -3 -14 -10 -22 -18 -19 -7 3 -16 1 -20 -5 -3 -7 0 -8 9 -5 11 4 16 0 16
-11 0 -14 3 -15 14 -6 10 9 15 8 20 -4 10 -27 -26 -91 -45 -79 -5 3 -9 -2 -9
-10 0 -26 -23 -30 -42 -7 -11 15 -24 21 -35 17 -13 -5 -8 -11 21 -27 21 -11
45 -18 54 -14 12 4 13 3 2 -10 -7 -9 -10 -25 -6 -41 6 -21 4 -25 -8 -21 -21 8
-27 -3 -11 -20 20 -19 19 -33 -2 -33 -17 -1 -17 -1 0 -11 15 -9 16 -12 2 -25
-8 -9 -13 -20 -9 -25 3 -5 2 -9 -3 -8 -4 1 -15 1 -23 0 -12 -1 -12 -4 3 -12
25 -15 21 -27 -8 -21 -15 2 -25 0 -25 -7 0 -7 5 -9 10 -6 6 3 10 2 10 -4 0
-16 -18 -22 -26 -10 -5 9 -11 6 -22 -7 -10 -13 -16 -15 -19 -6 -3 6 -9 10 -14
6 -5 -3 -12 2 -15 11 -6 13 -8 14 -15 3 -7 -10 -9 -9 -9 5 0 20 -1 20 -35 7
-18 -7 -24 -7 -20 1 4 6 -2 13 -14 16 -28 7 -27 17 4 37 22 14 23 19 13 36
-16 26 -28 25 -28 0 0 -11 -4 -20 -10 -20 -5 0 -10 5 -10 11 0 5 -5 7 -12 3
-8 -5 -9 -2 -5 9 4 10 0 20 -10 25 -9 5 -13 15 -9 21 4 6 11 9 16 6 4 -3 3 6
-3 20 -16 34 -35 32 -30 -2 4 -22 2 -25 -6 -13 -9 13 -12 13 -23 1 -11 -12
-10 -12 2 -6 13 8 13 7 1 -9 -14 -17 -15 -17 -23 3 -4 12 -5 27 -2 35 4 11 0
13 -15 9 -15 -4 -24 2 -32 21 -7 14 -16 26 -21 26 -13 0 -10 -12 9 -32 14 -15
14 -21 4 -27 -9 -6 -7 -10 8 -14 14 -3 19 -10 15 -21 -4 -11 -1 -16 10 -16 9
0 16 -7 16 -15 0 -8 5 -15 11 -15 6 0 8 -8 4 -19 -3 -10 -1 -30 4 -43 7 -18 6
-30 -2 -39 -7 -7 -2 -5 11 5 18 16 22 16 22 4 0 -8 -10 -20 -22 -27 l-23 -12
22 5 c13 2 26 0 29 -5 3 -5 0 -9 -6 -9 -7 0 -8 -6 0 -19 7 -14 7 -22 0 -26 -6
-4 -9 -1 -8 6 2 6 -3 14 -11 17 -10 3 -12 0 -8 -10 3 -9 -1 -25 -9 -36 -8 -11
-11 -27 -8 -35 5 -15 -36 -33 -46 -19 -3 4 -27 8 -54 8 -29 1 -52 7 -57 15 -7
11 -9 10 -9 -3 0 -10 -7 -18 -15 -18 -8 0 -15 9 -15 19 0 24 -13 33 -34 25
-27 -10 -13 -42 24 -56 8 -3 -1 -5 -21 -4 -27 1 -35 5 -31 15 10 26 -19 6 -35
-24 -33 -62 -35 -67 -25 -77 12 -12 44 2 38 18 -3 7 0 16 6 20 6 4 8 3 5 -3
-4 -6 -1 -16 7 -22 11 -9 15 -8 20 6 6 14 9 15 15 4 7 -11 12 -10 27 5 11 11
18 27 16 36 -2 12 2 15 17 11 11 -3 21 -13 23 -24 2 -14 7 -16 18 -9 12 7 11
13 -10 34 -19 21 -21 26 -7 26 9 0 17 -7 17 -15 0 -8 5 -15 10 -15 6 0 10 -7
10 -15 0 -8 5 -15 11 -15 8 0 7 -5 -2 -16 -9 -11 -26 -15 -55 -12 -34 2 -44
-1 -47 -14 -6 -20 34 -33 45 -15 11 18 17 4 7 -20 -5 -13 -15 -23 -24 -23 -8
0 -15 -4 -15 -10 0 -5 7 -10 15 -10 8 0 15 -4 15 -10 0 -5 -4 -10 -9 -10 -14
0 -19 -48 -7 -60 8 -8 6 -9 -6 -5 -13 5 -18 2 -18 -9 0 -9 6 -16 13 -16 8 0 7
-4 -3 -10 -21 -13 -30 -12 -30 4 0 20 -26 40 -35 26 -4 -6 7 -23 24 -37 29
-26 43 -73 21 -73 -5 0 -10 5 -10 10 0 6 -7 10 -15 10 -18 0 -20 16 -2 23 6 3
-4 3 -23 0 -45 -7 -62 -21 -55 -44 5 -14 2 -17 -9 -13 -11 4 -13 12 -7 27 5
12 6 28 3 36 -3 8 0 11 7 7 6 -4 14 0 17 9 6 14 8 14 19 -1 6 -9 17 -14 23
-10 16 10 15 27 0 24 -7 -2 -12 3 -10 10 1 6 -2 12 -8 12 -5 0 -10 6 -10 14 0
7 -8 16 -17 20 -10 3 -24 9 -32 12 -9 4 -11 2 -7 -5 6 -9 -7 -16 -16 -9 -2 1
-13 -4 -25 -11 -13 -6 -23 -8 -23 -2 0 11 -31 24 -39 16 -3 -3 1 -10 9 -16 11
-7 7 -8 -12 -3 -18 4 -28 2 -28 -5 0 -6 6 -11 14 -11 21 0 28 -30 10 -47 -13
-14 -17 -14 -24 -2 -5 7 -13 10 -17 5 -4 -5 -2 -11 5 -13 18 -7 15 -33 -5 -34
-12 -1 -10 -4 7 -9 l25 -8 -22 -7 c-13 -4 -23 -13 -23 -20 0 -14 -23 -13 -70
1 -24 7 -24 7 -7 -10 9 -10 17 -23 17 -31 0 -19 -38 -7 -55 18 l-15 21 0 -21
c0 -18 -5 -21 -27 -20 -16 1 -31 6 -34 11 -4 4 -16 3 -29 -4 -12 -6 -24 -9
-27 -6 -4 3 -13 -3 -20 -14 -8 -11 -18 -18 -23 -15 -4 3 -10 1 -12 -5 -1 -5
-18 -13 -37 -16 -25 -5 -32 -4 -27 4 5 8 -1 12 -14 12 -15 0 -20 -5 -17 -15 4
-8 2 -17 -3 -20 -6 -4 -10 -1 -10 6 0 7 -3 9 -6 6 -4 -3 -16 -1 -27 4 -14 8
-22 8 -27 -2 -6 -9 -12 -9 -25 4 -9 9 -13 21 -10 27 3 5 -3 10 -14 10 -12 0
-21 -7 -21 -15 0 -16 -21 -20 -34 -8 -4 4 -15 8 -24 8 -10 0 -18 9 -20 23 -4
27 -22 19 -22 -10 0 -16 -3 -18 -14 -9 -11 9 -12 6 -8 -14 3 -18 0 -25 -11
-25 -9 0 -19 5 -23 12 -5 8 -11 6 -20 -7 -12 -16 -14 -17 -20 -2 -11 29 -78
22 -103 -9 -12 -15 -21 -22 -21 -15 0 6 -4 11 -8 11 -12 0 -10 -44 2 -52 7 -5
4 -8 -6 -8 -9 0 -20 4 -23 10 -3 5 -15 10 -26 10 -10 0 -19 4 -19 9 0 5 -13
14 -29 21 -20 8 -32 21 -36 41 -4 17 -11 26 -18 22 -6 -4 -8 0 -4 10 3 10 2
17 -4 17 -6 0 -7 4 -4 10 4 6 -1 7 -11 3 -15 -6 -15 -4 1 21 10 15 15 29 11
33 -3 3 -6 1 -6 -5 0 -15 -57 -44 -64 -33 -4 5 -3 16 0 25 3 9 1 16 -5 16 -6
0 -11 -4 -11 -10 0 -5 -5 -10 -11 -10 -6 0 -9 7 -5 15 8 21 -6 50 -24 50 -28
0 -16 30 13 33 23 3 26 6 16 18 -6 7 -15 11 -20 8 -13 -8 -11 10 3 24 8 8 9
12 1 12 -6 0 -18 -6 -25 -13 -7 -7 -21 -16 -30 -20 -10 -3 -18 -11 -18 -17 0
-5 -4 -10 -9 -10 -10 0 -8 51 3 68 9 15 -1 32 -17 32 -8 0 -7 -3 2 -9 11 -7
11 -13 -3 -32 -9 -13 -17 -20 -17 -16 -1 4 -2 11 -3 16 0 5 -13 27 -27 49 -14
22 -29 51 -33 66 -3 14 -13 26 -21 26 -8 0 -15 7 -15 15 0 8 -4 15 -10 15 -5
0 -7 -7 -4 -15 8 -20 -6 -19 -21 2 -12 17 -14 17 -34 -1 -21 -19 -22 -19 -35
0 -8 10 -17 16 -20 13 -3 -3 3 -16 14 -29 11 -13 20 -29 20 -36 0 -7 12 -22
28 -34 15 -12 21 -19 15 -15 -7 3 -13 1 -13 -5 0 -13 49 -33 67 -26 7 3 13 1
13 -4 0 -6 -5 -10 -11 -10 -6 0 -17 -7 -26 -15 -11 -12 -12 -19 -3 -29 9 -11
7 -17 -7 -26 -15 -9 -13 -10 15 -7 39 4 43 -14 5 -34 -19 -10 -27 -11 -30 -3
-2 7 -13 10 -23 7 -12 -3 -20 0 -20 6 0 7 4 9 10 6 5 -3 3 9 -4 27 -7 18 -16
40 -19 48 -3 11 -7 9 -14 -8 -8 -22 -9 -21 -22 13 -8 23 -9 40 -3 48 6 8 2 28
-12 60 -20 44 -39 63 -35 35 3 -25 -1 -38 -12 -38 -6 0 -9 9 -6 20 3 13 0 20
-9 20 -8 0 -14 5 -14 11 0 6 8 8 18 5 14 -5 13 -3 -3 9 -12 10 -21 12 -23 5
-8 -24 -21 -7 -17 23 6 40 -2 67 -19 67 -10 0 -12 12 -8 45 3 30 1 45 -7 45
-6 0 -11 8 -11 18 0 13 2 14 9 3 5 -7 14 -10 21 -6 7 4 8 11 2 17 -5 5 -6 27
-2 49 7 38 5 43 -14 40 -5 -1 -4 4 3 12 9 12 8 23 -6 53 -14 28 -15 38 -5 41
6 3 9 9 6 15 -4 6 -8 28 -9 50 -2 23 -9 44 -17 49 -10 7 -9 9 4 9 15 0 16 4 8
26 -7 19 -7 31 1 40 7 9 8 14 1 14 -6 0 -9 8 -7 18 1 10 9 16 20 14 11 -2 15
2 13 10 -3 7 -10 13 -17 13 -25 0 -31 29 -9 52 18 19 19 23 5 23 -18 0 -32 34
-28 68 1 12 -3 38 -9 58 -9 27 -9 38 -1 43 8 5 11 46 10 125 -1 75 3 122 10
129 13 13 15 31 3 23 -8 -5 -5 20 13 115 l7 36 42 -21 c53 -28 107 -46 134
-46 11 0 23 -3 25 -7 7 -11 370 4 431 17 76 17 177 60 209 88 15 14 27 22 27
18 0 -16 -103 -104 -141 -121 -21 -10 -67 -19 -101 -21 -76 -3 -159 -14 -175
-23 -6 -3 -34 -4 -62 -3 -39 3 -51 8 -52 20 0 14 -2 14 -6 2 -9 -22 -26 -30
-40 -18 -9 7 -13 7 -13 -1 0 -7 -5 -9 -11 -6 -14 9 -59 -3 -59 -16 0 -6 4 -8
9 -4 5 3 12 1 16 -5 4 -7 13 -6 27 1 16 9 19 8 13 -1 -6 -10 -1 -11 19 -6 15
4 26 2 26 -4 0 -5 5 -10 10 -10 6 0 10 8 10 18 0 13 2 14 9 3 10 -15 80 -17
196 -5 138 14 167 19 190 31 11 6 36 16 56 22 40 13 113 77 123 108 4 12 18
33 33 47 14 14 21 26 16 26 -9 0 71 180 98 220 5 8 12 23 15 33 4 9 10 17 15
17 5 0 6 6 3 14 -3 8 4 23 16 34 13 12 19 26 15 32 -6 10 48 147 76 190 5 8
12 22 15 31 7 22 64 38 85 26 9 -6 22 -26 30 -46z m1071 -658 c-6 -3 -9 -10
-5 -16 4 -6 0 -8 -9 -5 -11 5 -14 0 -10 -18 3 -20 1 -23 -13 -18 -10 4 -15 14
-12 26 4 12 1 18 -6 15 -7 -2 -12 -14 -11 -26 1 -24 -6 -27 -24 -9 -9 9 -12 8
-12 -6 0 -9 -4 -14 -10 -11 -5 3 -10 -1 -10 -10 0 -11 -5 -15 -14 -12 -7 3
-19 0 -26 -6 -10 -10 -12 -8 -6 7 5 14 2 17 -9 12 -9 -3 -37 0 -62 7 -38 10
-47 10 -51 -1 -3 -10 -8 -7 -19 7 -15 23 -45 29 -40 9 3 -17 -34 -18 -53 -2
-22 19 -80 15 -80 -5 -1 -14 -2 -14 -14 2 -7 9 -21 17 -31 17 -10 0 -28 12
-41 26 l-24 25 47 -8 c61 -10 466 -6 513 5 33 8 59 4 32 -5z m917 -286 c6 -8
9 -16 6 -19 -3 -2 -6 -23 -7 -46 -1 -23 -5 -39 -10 -36 -4 3 -5 -2 -2 -10 3
-8 15 -18 26 -22 11 -3 17 -8 15 -11 -3 -3 1 -24 9 -46 9 -25 13 -57 9 -77
-14 -82 -17 -93 -25 -79 -6 9 -10 6 -15 -14 -6 -23 -11 -25 -38 -20 -18 3 -36
9 -40 13 -12 11 -69 -12 -89 -35 -11 -13 -17 -15 -18 -7 0 9 -7 11 -20 7 -22
-7 -22 5 -1 101 l12 51 42 1 c78 3 106 7 119 20 10 10 10 15 -2 22 -13 9 -13
10 0 10 13 0 13 1 0 10 -10 6 -11 10 -2 10 6 0 12 7 12 16 0 9 5 13 13 9 6 -4
-1 5 -17 19 -17 14 -33 23 -36 21 -7 -5 -40 31 -40 44 0 4 11 21 25 37 14 16
25 32 25 37 0 12 37 8 49 -6z m-309 -1167 c0 -5 9 -10 20 -10 20 0 20 -1 4
-25 -16 -24 -16 -25 7 -26 13 0 18 -3 11 -6 -10 -4 -10 -8 -1 -19 20 -25 2
-26 -21 -2 -13 13 -19 16 -15 8 5 -8 8 -28 7 -44 -2 -25 0 -27 13 -16 8 7 15
9 15 4 0 -5 5 -2 10 6 9 13 10 13 10 0 1 -11 4 -10 17 5 14 18 15 18 9 2 -3
-10 -6 -23 -6 -28 0 -5 -7 -9 -15 -9 -25 0 -17 -19 10 -26 32 -8 42 1 25 21
-11 13 -10 14 4 9 9 -3 16 -15 16 -25 0 -18 -14 -24 -52 -21 -10 1 -20 -11
-27 -30 -14 -40 -14 -38 9 -38 21 0 27 15 10 25 -15 9 -12 25 5 25 9 0 18 -7
21 -15 8 -20 24 -19 24 1 0 8 4 13 9 10 5 -3 12 1 15 10 5 13 9 14 21 4 8 -6
19 -9 25 -5 17 10 11 -7 -7 -20 -9 -7 -13 -17 -8 -25 6 -10 9 -9 16 1 7 11 11
10 21 -4 8 -10 22 -19 33 -21 26 -4 31 -23 5 -21 -11 1 -22 4 -26 8 -9 9 -36
-21 -29 -32 11 -19 -17 -23 -30 -5 -21 28 -19 47 4 39 11 -3 22 -1 26 5 3 6
-3 10 -14 10 -17 0 -21 6 -21 33 l0 32 -18 -26 c-9 -14 -22 -24 -29 -22 -6 2
-14 -5 -18 -17 -4 -13 -12 -19 -21 -16 -17 7 -17 5 -1 -26 7 -14 19 -23 27
-20 9 3 7 -2 -5 -13 -18 -15 -18 -16 -2 -11 10 3 23 6 29 6 7 0 8 14 5 35 -7
41 6 38 21 -5 10 -28 9 -30 -16 -36 -15 -4 -30 -12 -34 -18 -5 -8 -11 -7 -19
1 -9 9 -16 9 -25 2 -20 -17 -5 -38 32 -45 19 -3 32 -10 29 -14 -5 -8 28 -34
70 -55 23 -12 30 -43 15 -65 -9 -13 -11 -13 -20 0 -13 19 -13 40 0 40 6 0 10
-7 10 -17 0 -9 3 -14 6 -10 11 11 -7 49 -21 43 -8 -3 -15 -2 -17 2 -2 5 -21
21 -42 37 -27 20 -41 26 -44 17 -2 -7 -13 -10 -26 -6 -12 3 -34 0 -49 -5 -15
-6 -27 -7 -27 -1 0 12 19 23 44 24 17 1 20 7 18 34 -2 23 1 32 12 32 8 0 18 5
21 10 4 6 -12 10 -42 9 -36 0 -43 -3 -28 -9 19 -8 19 -9 -2 -9 -14 -1 -21 -6
-17 -14 3 -8 -2 -14 -11 -14 -19 0 -19 7 1 35 12 17 25 22 61 22 48 0 53 11 7
16 -32 3 -38 9 -29 24 5 9 10 9 18 1 29 -29 36 -4 7 29 -18 20 -20 21 -26 5
-5 -13 -9 -14 -15 -4 -9 15 9 42 22 33 5 -3 9 0 9 5 0 6 -7 11 -15 11 -8 0
-15 7 -15 16 0 8 4 13 9 10 5 -4 11 0 14 6 3 9 9 7 19 -6 12 -15 17 -16 23 -6
9 14 -22 43 -36 35 -4 -3 -10 -1 -14 5 -3 5 -17 10 -31 10 -15 0 -23 4 -19 10
4 6 12 7 18 3 7 -3 3 3 -7 15 -11 12 -16 25 -13 29 4 3 7 2 7 -3 0 -5 11 -10
25 -10 20 -2 23 1 15 11 -6 8 -10 19 -9 27 3 25 -1 48 -8 47 -19 -3 -23 2 -11
16 15 16 38 20 38 5z m-6534 -25 c3 -8 1 -36 -6 -62 -39 -166 -70 -440 -47
-426 5 3 8 0 5 -8 -3 -8 -20 -16 -39 -19 -30 -4 -34 -9 -37 -40 -2 -19 -8 -41
-14 -47 -6 -7 -10 -31 -10 -53 1 -37 -12 -60 -26 -46 -11 11 -5 80 12 129 9
26 16 54 16 61 0 16 -31 26 -85 26 -70 0 -87 9 -80 39 3 14 14 33 25 42 12 11
17 24 13 38 -4 17 -2 20 11 15 9 -3 16 -1 16 5 0 7 10 5 24 -6 16 -12 20 -20
12 -25 -8 -6 -7 -11 4 -18 18 -12 30 -13 30 -2 0 5 8 17 18 28 22 25 34 52 62
144 12 41 26 86 30 100 5 14 11 39 13 55 13 71 39 107 53 70z m273 -11 c6 -6
-17 -125 -33 -177 -7 -23 -21 -69 -31 -102 -9 -33 -23 -79 -31 -101 -7 -23
-20 -79 -30 -125 -9 -46 -21 -93 -27 -104 -6 -11 -20 -48 -31 -82 -12 -35 -25
-63 -31 -63 -14 0 -19 110 -7 154 9 32 8 38 -15 56 -14 11 -22 20 -18 20 4 0
1 8 -6 17 -12 15 -12 16 5 10 16 -6 17 -4 12 18 -4 14 -2 25 3 25 9 0 19 21
26 54 1 6 8 25 15 41 8 17 15 37 16 45 1 8 5 23 9 33 4 10 3 17 -4 17 -7 0 -8
8 -2 23 4 12 7 33 6 47 -1 14 2 30 7 37 5 7 5 13 0 17 -11 7 9 102 29 135 13
21 19 22 74 16 33 -4 62 -8 64 -11z m2301 -10 c0 -8 -5 -14 -10 -14 -7 0 -7
-7 0 -21 10 -18 8 -95 -6 -179 -2 -14 -6 -72 -10 -130 -3 -58 -9 -121 -14
-140 -4 -19 -12 -84 -16 -145 -4 -60 -8 -119 -9 -130 -1 -11 -5 -87 -9 -170
-4 -82 -11 -175 -16 -205 -5 -30 -11 -86 -13 -123 -4 -63 -3 -67 14 -62 11 4
19 2 19 -4 0 -6 -1 -11 -3 -11 -21 0 -180 -23 -202 -29 -16 -5 -66 -16 -110
-25 -44 -10 -96 -21 -115 -26 -19 -5 -66 -16 -104 -25 -38 -9 -87 -25 -109
-35 -23 -11 -44 -20 -48 -20 -4 0 -36 -13 -71 -29 -35 -16 -83 -35 -108 -41
-24 -7 -74 -27 -110 -45 -36 -18 -83 -36 -106 -39 -24 -4 -57 -21 -80 -39
l-38 -32 -236 -1 c-213 -1 -241 -3 -302 -23 -86 -28 -183 -109 -235 -198 -38
-65 -64 -84 -138 -101 -22 -5 -47 -13 -55 -16 -13 -5 -16 2 -18 38 -1 31 3 46
13 50 12 4 15 25 15 88 0 46 9 133 20 193 12 61 25 134 30 164 5 30 14 59 20
65 5 5 10 26 11 46 0 19 6 62 13 95 9 39 10 64 3 72 -10 13 -1 80 13 98 8 11
28 123 40 235 5 41 13 90 19 109 6 19 8 38 5 42 -3 5 0 61 6 126 5 65 12 147
15 183 3 36 10 85 15 110 11 55 18 116 26 240 3 52 9 99 14 103 7 8 337 10
362 3 7 -3 76 -7 153 -11 151 -7 182 -11 205 -30 16 -13 83 -13 115 0 18 8 19
7 6 -8 -7 -9 -26 -17 -42 -17 -19 0 -29 -5 -29 -15 0 -16 12 -20 24 -7 4 4 12
8 17 8 5 1 10 2 12 4 1 1 10 3 20 5 10 2 27 11 36 19 22 20 111 22 111 4 0
-10 2 -10 9 0 6 10 82 13 360 15 194 0 354 5 357 9 3 4 -5 8 -18 8 -19 0 -20
2 -8 10 8 5 65 9 127 9 62 0 120 4 130 9 21 12 33 7 33 -14z m-2133 -51 c-6
-68 -20 -136 -42 -213 -32 -112 -70 -281 -79 -359 -6 -45 -26 -82 -26 -48 0
10 -6 20 -13 23 -17 6 -10 47 29 184 14 52 30 113 34 135 11 60 29 120 45 152
8 15 15 39 15 53 0 39 24 130 33 130 5 0 7 -26 4 -57z m120 -20 c-15 -191 -35
-345 -77 -574 -5 -30 -10 -67 -10 -82 0 -35 -16 -35 -23 -1 -4 25 0 68 23 219
5 33 11 83 15 110 4 28 13 79 20 115 7 36 19 113 26 173 13 118 34 150 26 40z
m6595 -345 c8 8 19 4 42 -15 18 -15 32 -21 34 -14 2 6 8 9 12 6 5 -3 7 -12 3
-20 -3 -9 1 -15 8 -15 8 0 21 -5 29 -10 12 -8 13 -11 1 -19 -9 -6 -10 -11 -2
-15 6 -4 11 -2 11 3 0 6 7 11 15 11 8 0 15 8 16 18 0 14 2 14 9 -3 5 -11 9
-27 9 -35 -1 -10 -2 -11 -6 -2 -2 6 -12 12 -21 11 -11 0 -12 -2 -4 -6 6 -2 12
-9 12 -14 0 -4 -6 -6 -13 -3 -8 3 -14 -2 -14 -10 0 -11 5 -13 18 -5 23 12 29
11 29 -2 0 -5 -4 -8 -8 -5 -4 2 -13 1 -20 -3 -14 -9 -21 -50 -7 -48 6 1 10 10
9 20 -1 24 23 21 31 -4 8 -24 -1 -35 -30 -41 -19 -3 -65 34 -65 54 0 5 -7 8
-15 4 -8 -3 -15 -1 -15 5 0 6 -9 8 -20 4 -11 -4 -20 -2 -20 4 0 6 5 11 11 11
7 0 9 15 5 43 l-5 42 11 -35 c7 -19 18 -41 25 -48 11 -11 15 -9 23 13 14 36
13 37 -12 30 -16 -4 -19 -4 -9 3 15 11 6 36 -10 27 -5 -3 -6 1 -3 9 4 11 0 16
-14 16 -11 0 -23 7 -26 16 -5 13 -9 14 -21 4 -8 -7 -15 -19 -15 -27 0 -8 -4
-12 -9 -9 -11 7 -41 -3 -41 -14 0 -4 11 -10 25 -12 20 -4 26 -1 31 18 6 24 24
34 24 13 0 -35 -85 -64 -97 -33 -3 9 0 20 7 24 11 7 11 11 1 24 -8 9 -21 16
-30 16 -14 0 -14 2 -1 10 10 6 16 6 18 0 2 -6 10 -10 18 -10 9 0 12 -4 9 -10
-3 -5 0 -10 8 -10 20 0 28 25 14 41 -9 10 -8 10 6 -1 13 -10 21 -10 29 -2z
m233 -128 c3 -5 1 -10 -4 -10 -6 0 -11 -9 -11 -20 0 -11 4 -20 9 -20 5 0 11
-6 14 -12 2 -7 2 1 -1 17 -2 17 -1 27 3 23 5 -4 14 -3 21 3 7 6 18 7 25 3 8
-5 7 -9 -5 -16 -9 -5 -16 -17 -16 -26 1 -15 3 -14 17 3 14 17 15 18 9 2 -3
-11 1 -25 10 -34 13 -14 14 -13 8 11 -5 22 -3 26 15 26 12 0 21 5 21 10 0 15
36 12 50 -5 9 -10 9 -15 1 -15 -6 0 -11 5 -11 10 0 6 -12 4 -29 -4 -23 -12
-27 -20 -24 -41 4 -19 1 -25 -13 -26 -18 0 -18 -1 1 -9 29 -13 35 -12 35 5 0
8 7 15 15 15 8 0 15 5 15 10 0 6 -6 10 -12 10 -9 0 -8 3 2 9 16 11 33 4 25
-10 -4 -5 7 -9 23 -9 19 0 35 8 44 22 l15 22 -2 -24 c-1 -22 -8 -26 -46 -31
-24 -3 -39 -7 -34 -8 6 -2 -1 -7 -15 -11 -23 -7 -23 -8 -3 -9 12 -1 25 4 28 9
12 20 49 9 76 -22 20 -24 28 -28 29 -16 0 9 -4 18 -10 20 -5 2 -7 13 -4 25 5
17 9 19 19 10 10 -10 10 -13 -4 -19 -9 -4 2 -5 24 -1 22 3 42 10 43 14 2 5 8
9 14 9 7 0 6 -5 -1 -14 -10 -11 -8 -16 8 -21 24 -7 28 -25 7 -25 -9 0 -12 -7
-9 -21 4 -15 0 -22 -16 -26 -27 -7 -27 -29 -1 -36 11 -3 20 0 20 6 0 8 3 8 8
2 9 -13 32 -17 32 -6 0 5 -5 11 -12 13 -16 6 -17 50 -2 65 18 19 24 16 24 -12
0 -16 -6 -25 -16 -25 -8 0 -12 -5 -8 -11 3 -6 15 -9 25 -6 11 3 19 0 19 -5 0
-6 8 -4 18 4 9 8 32 20 50 28 17 7 32 16 32 20 0 4 11 5 25 2 14 -2 25 -8 25
-12 0 -5 -10 -6 -22 -4 -13 2 -17 2 -10 -2 6 -3 12 -13 12 -21 0 -9 6 -13 14
-10 8 3 17 1 20 -6 2 -7 5 -4 5 5 1 10 12 20 26 24 14 3 25 10 25 15 0 5 11 7
25 3 17 -4 27 -1 31 9 3 9 11 14 17 11 7 -2 36 2 65 9 28 8 52 10 52 5 0 -5
-13 -11 -30 -14 -16 -4 -30 -10 -30 -14 0 -5 -9 -6 -21 -3 -27 7 -71 -17 -64
-35 3 -8 0 -12 -7 -9 -7 2 -12 9 -11 15 1 5 -7 8 -17 5 -11 -3 -21 -13 -21
-22 -1 -13 -2 -13 -6 2 -2 9 -9 15 -14 12 -5 -4 -6 -17 -3 -31 4 -16 2 -24 -7
-24 -7 0 -10 -3 -7 -6 4 -3 18 2 33 12 26 17 28 17 40 0 8 -11 15 -13 20 -7 3
6 1 11 -4 11 -19 0 -12 17 9 23 11 3 20 0 20 -6 0 -7 11 -13 25 -13 32 -2 32
0 -7 25 -24 15 -28 21 -15 21 10 0 15 5 12 10 -9 14 8 13 23 -2 9 -9 16 -7 32
7 19 17 20 17 20 0 0 -14 3 -15 15 -5 8 7 15 8 15 3 0 -5 -11 -16 -25 -23 -19
-10 -22 -16 -14 -27 15 -18 30 -17 23 2 -4 9 0 15 8 15 22 0 38 -21 38 -50 0
-14 -5 -31 -12 -38 -8 -8 -8 -12 -1 -12 17 0 34 26 27 44 -11 27 12 18 26 -11
8 -19 14 -23 18 -14 2 7 0 16 -7 20 -6 4 -12 18 -13 31 -2 20 2 26 21 28 30 5
44 -9 46 -47 1 -21 -3 -31 -17 -34 -13 -4 -16 -10 -11 -24 7 -17 8 -17 11 0 5
22 10 22 34 -5 13 -16 21 -19 24 -10 9 20 34 14 34 -9 0 -11 -4 -17 -10 -14
-5 3 -10 1 -10 -4 0 -6 17 -11 38 -11 20 0 32 4 25 8 -8 5 -3 11 13 19 23 11
35 1 14 -12 -15 -9 -12 -28 4 -22 7 3 18 1 24 -5 6 -6 19 -8 29 -4 15 6 15 8
3 16 -13 8 -12 10 3 10 27 0 20 -29 -9 -36 -17 -4 -29 -2 -35 7 -5 8 -9 9 -9
3 0 -13 -176 -11 -245 4 -169 36 -309 87 -284 103 9 7 5 7 -14 3 -16 -4 -33
-1 -43 7 -11 9 -52 12 -142 11 -77 -1 -131 3 -139 10 -7 6 -13 7 -13 2 0 -5
-71 -10 -158 -12 -86 -1 -164 -5 -173 -8 -9 -2 -77 -9 -150 -14 -74 -5 -178
-14 -232 -20 -97 -12 -99 -12 -123 11 -14 13 -23 30 -21 39 3 13 -11 16 -84
18 -48 2 -90 -1 -93 -7 -6 -10 -86 24 -86 37 0 4 -3 17 -6 30 -5 17 -2 22 12
22 18 1 18 1 2 14 -19 14 -24 46 -8 46 6 0 10 7 10 16 0 9 -5 12 -12 8 -7 -4
-8 -3 -4 4 4 7 1 12 -9 12 -12 0 -14 -8 -11 -32 5 -29 4 -31 -6 -11 -6 12 -8
29 -4 38 9 25 39 14 55 -20 8 -17 19 -33 25 -37 7 -5 3 -8 -8 -8 -11 0 -17 -3
-13 -6 3 -3 15 -3 27 1 17 5 21 13 17 31 -4 22 7 34 15 16 2 -5 15 -12 31 -16
23 -5 27 -3 27 15 0 17 3 19 14 10 10 -8 16 -9 21 -1 3 5 2 10 -2 10 -5 0 -9
9 -9 20 0 28 13 25 20 -6 5 -19 1 -32 -16 -50 -13 -13 -29 -24 -36 -24 -7 0
-10 -4 -7 -10 3 -5 17 -10 30 -10 18 0 22 4 18 20 -4 14 0 20 11 20 14 0 21
18 17 43 -2 16 61 6 81 -13 26 -24 4 -28 -27 -4 -18 13 -20 13 -27 -3 -12 -31
-10 -49 4 -35 21 21 39 14 32 -12 -4 -18 -1 -27 15 -36 12 -6 21 -7 21 -1 0
13 61 -5 72 -21 14 -23 9 -30 -18 -24 -16 4 -23 3 -20 -3 4 -5 2 -12 -4 -16
-15 -9 -12 -25 5 -25 7 0 18 7 23 16 5 9 15 14 21 10 6 -4 9 -11 7 -15 -3 -4
0 -13 5 -21 8 -11 9 -6 6 18 -3 28 -1 32 20 32 14 0 23 6 23 15 0 8 5 15 10
15 6 0 10 5 10 10 0 5 -3 9 -7 8 -5 -1 -21 4 -36 10 -16 7 -33 12 -38 12 -10
0 -11 6 -3 38 7 26 26 30 23 5 -3 -30 1 -43 11 -43 6 0 10 11 10 25 0 14 5 25
11 25 6 0 9 -7 6 -14 -4 -10 -1 -13 9 -9 18 7 18 -2 -1 -21 -14 -13 -13 -15 2
-14 10 0 25 -2 34 -6 12 -5 15 -2 14 14 -1 11 -7 26 -13 32 -7 7 -12 18 -12
25 0 7 -4 13 -9 13 -5 0 -11 6 -14 13 -4 10 2 13 19 9 13 -2 24 -11 24 -18 0
-12 26 -19 53 -15 11 2 8 -27 -3 -34 -6 -4 -18 -1 -26 6 -12 10 -13 9 -8 -4 8
-23 32 -29 42 -10 7 11 11 12 17 4 5 -9 11 -9 23 1 10 8 13 9 9 1 -5 -7 1 -13
15 -15 13 -2 24 -9 24 -15 2 -23 4 -24 14 -18 8 5 7 11 -1 21 -7 8 -9 27 -5
49 10 53 31 44 29 -12 -1 -19 17 -16 24 5 4 9 11 20 17 24 7 5 4 8 -6 8 -10 0
-22 9 -28 20 -9 16 -8 20 5 20 8 0 15 -4 15 -10 0 -5 8 -10 18 -10 11 0 24
-11 30 -25 11 -25 32 -34 32 -15 0 6 7 10 15 10 8 0 15 -4 15 -10 0 -5 -5 -10
-12 -10 -6 0 -8 -3 -4 -7 4 -5 9 -7 12 -6 7 4 54 -44 54 -56 0 -7 4 -10 9 -7
5 4 5 18 -2 36 -6 16 -14 25 -18 19 -8 -14 -20 46 -13 65 3 8 2 21 -2 28 -14
22 -13 58 1 58 8 0 17 -4 20 -10z m-4495 -430 c0 -16 2 -30 4 -30 2 0 13 -3
23 -6 15 -6 16 -4 6 7 -20 20 -15 31 7 19 17 -9 20 -8 20 10 0 22 16 26 40 10
13 -8 13 -10 -2 -10 -25 0 -38 -30 -24 -52 9 -15 8 -21 -4 -28 -13 -9 -13 -11
0 -20 13 -8 12 -10 -3 -10 -10 0 -20 7 -23 15 -10 25 -21 17 -21 -14 0 -28 2
-29 31 -24 30 5 30 5 11 -10 -16 -13 -17 -16 -4 -17 25 0 68 -24 71 -39 2 -12
6 -12 20 2 9 9 29 16 45 16 l28 -1 -30 -8 -30 -8 28 -1 c16 0 37 -6 49 -12 25
-13 35 -5 18 16 -11 14 -7 19 13 16 12 -2 8 17 -5 22 -8 3 -7 6 4 6 9 1 19 -3
22 -7 3 -5 19 -7 36 -4 23 3 30 0 30 -12 0 -9 7 -16 15 -16 9 0 12 6 9 18 -5
16 -5 16 8 0 8 -9 24 -18 36 -20 45 -6 26 -20 -33 -24 -33 -2 -88 -6 -122 -9
-38 -3 -63 -1 -63 5 0 6 -4 10 -10 10 -5 0 -7 -7 -4 -15 5 -11 -1 -15 -20 -17
-41 -2 -78 -7 -111 -13 -16 -3 -57 -10 -90 -15 -33 -5 -82 -13 -109 -19 -27
-6 -52 -9 -54 -6 -3 3 -12 -1 -21 -9 -16 -13 -37 -20 -96 -30 l-30 -6 28 12
c17 7 27 20 27 32 1 19 1 19 11 4 11 -20 27 -22 48 -9 18 11 5 51 -17 52 -11
0 -12 2 -4 6 6 2 10 9 6 14 -3 5 4 9 15 9 11 0 23 5 26 10 4 6 -5 10 -20 10
-23 0 -25 2 -14 21 8 17 8 23 -1 29 -7 4 -9 13 -5 20 5 8 11 5 22 -9 8 -12 21
-21 29 -21 17 0 18 12 2 29 -7 8 -1 6 15 -4 15 -9 27 -21 27 -26 0 -5 9 -9 20
-9 27 0 25 8 -5 32 -18 14 -24 26 -20 39 4 11 2 19 -5 19 -6 0 -8 5 -5 10 10
16 48 11 75 -10 l25 -20 -22 0 c-14 0 -23 6 -23 15 0 8 -7 15 -15 15 -8 0 -16
-7 -16 -15 -1 -8 -2 -21 -3 -27 -1 -7 10 -14 24 -15 14 -1 40 -4 58 -7 27 -4
33 -2 28 9 -3 8 0 15 7 15 8 0 6 4 -3 10 -12 8 -10 10 10 10 20 0 22 2 10 10
-11 7 -4 9 23 5 28 -3 37 -1 37 11 0 11 -6 13 -21 9 -14 -5 -27 0 -40 14 -11
12 -24 21 -29 21 -17 0 -11 -28 8 -33 9 -3 0 -5 -21 -6 -35 -1 -37 0 -23 15 9
8 16 25 16 36 0 17 2 18 15 8 13 -10 15 -9 15 9 0 11 5 21 10 21 6 0 10 -13
10 -30z m-2544 -522 c-4 -29 -17 -120 -30 -203 -32 -200 -46 -304 -46 -340 0
-19 -7 -35 -18 -42 -18 -10 -19 -8 -15 40 2 29 10 90 18 137 7 47 18 117 24
155 45 313 44 305 63 305 7 0 8 -18 4 -52z m3287 -30 c6 -3 17 -4 25 0 11 4
13 1 8 -7 -5 -7 -16 -11 -26 -8 -14 4 -21 -5 -31 -42 -6 -25 -16 -50 -20 -55
-15 -16 -10 -26 12 -26 22 0 22 -7 4 -67 -6 -18 -3 -23 10 -23 13 0 15 -3 7
-12 -10 -13 -12 -18 -12 -39 0 -7 -9 -9 -21 -6 -17 5 -18 3 -8 -9 10 -13 15
-12 36 7 19 19 23 20 23 6 0 -22 16 -22 29 0 5 10 13 15 17 11 4 -4 1 -14 -5
-22 -7 -8 -10 -20 -6 -25 3 -7 0 -8 -9 -5 -9 3 -16 1 -16 -5 0 -6 -7 -11 -15
-11 -13 0 -14 -4 -4 -21 10 -20 9 -21 -10 -16 -11 3 -21 1 -21 -4 0 -5 5 -9
10 -9 6 0 10 -9 10 -20 0 -11 -6 -20 -12 -20 -9 0 -8 -4 2 -10 10 -6 11 -10 3
-10 -7 0 -15 -11 -19 -25 -3 -14 -11 -22 -16 -19 -6 4 -8 -2 -3 -15 4 -13 2
-21 -5 -21 -6 0 -8 -4 -5 -10 3 -5 3 -10 -2 -10 -4 -1 -21 -12 -38 -26 -16
-13 -22 -22 -12 -18 21 7 22 -2 3 -21 -12 -12 -15 -12 -20 0 -3 8 -12 15 -20
15 -10 0 -13 6 -10 15 4 9 0 15 -9 15 -18 0 -30 -30 -21 -54 3 -9 1 -16 -5
-16 -10 0 -15 20 -12 47 1 7 -3 13 -9 13 -14 0 -13 37 3 43 7 3 4 6 -6 6 -17
1 -17 3 2 27 19 24 19 27 4 42 -16 16 -15 17 5 20 12 2 22 6 23 10 5 33 4 82
-1 82 -4 0 -6 10 -4 23 1 12 3 39 3 60 1 22 6 37 14 37 22 0 38 16 31 33 -3 9
-10 14 -16 11 -5 -3 -7 -12 -4 -20 3 -8 1 -14 -4 -14 -14 0 -12 22 4 45 18 28
28 73 16 77 -7 2 -5 22 5 54 17 57 49 78 72 48 6 -9 16 -13 22 -9 6 3 11 1 11
-4 0 -6 -7 -11 -15 -11 -20 0 -19 -19 0 -27 23 -8 27 1 27 49 -1 37 1 40 10
23 6 -11 16 -23 21 -27z"/>
<path d="M6145 4391 c-6 -5 -41 -12 -80 -14 -79 -5 -125 -16 -204 -46 -66 -25
-74 -32 -73 -68 1 -56 14 -94 29 -89 8 3 18 6 21 6 4 0 0 5 -8 11 -11 8 -5 9
23 4 25 -4 37 -3 33 4 -3 5 -1 11 5 13 9 3 9 9 1 25 -6 11 -8 23 -5 27 14 14
40 4 53 -20 23 -41 57 -54 115 -42 28 5 59 12 71 14 20 3 49 55 56 98 3 18 4
19 20 3 22 -23 38 -21 38 2 0 21 -16 35 -40 36 -8 0 -16 10 -18 23 -3 23 -21
29 -37 13z"/>
<path d="M6560 3230 c0 -13 -63 -24 -132 -23 -32 1 -58 -3 -58 -8 0 -5 -7 -9
-16 -9 -8 0 -12 5 -9 10 3 6 -3 10 -14 10 -12 0 -21 -4 -21 -9 0 -5 -9 -7 -20
-4 -11 3 -20 1 -20 -5 0 -5 -11 -13 -24 -16 -13 -3 -47 -28 -76 -56 -29 -27
-60 -50 -70 -50 -10 0 -46 -11 -81 -24 -51 -18 -67 -30 -81 -57 -13 -25 -15
-35 -5 -41 8 -5 7 -8 -4 -8 -17 0 -48 -29 -33 -31 5 0 23 -2 41 -2 17 -1 35
-5 39 -9 4 -4 12 -2 18 5 6 7 45 24 86 37 41 14 79 30 83 35 6 6 10 6 14 -2 7
-19 47 -17 39 2 -3 8 -1 15 5 15 5 0 14 11 19 25 9 24 19 29 49 26 7 -2 10 2
6 8 -3 6 -1 12 4 12 14 2 23 4 41 12 19 8 81 4 98 -6 6 -5 12 -6 12 -4 0 3 29
-1 64 -7 50 -10 79 -10 132 0 38 7 69 13 69 14 0 1 28 4 63 6 49 3 62 1 62
-11 0 -7 10 -21 22 -29 12 -9 17 -16 10 -16 -6 0 -12 -5 -12 -11 0 -6 9 -8 20
-4 12 4 26 0 36 -9 8 -9 22 -16 30 -16 8 0 14 -5 14 -10 0 -6 11 -8 25 -4 16
4 39 -2 70 -19 44 -25 125 -34 125 -15 0 4 11 8 24 8 33 0 57 10 50 21 -3 5 4
9 15 9 10 0 27 3 37 7 12 4 15 3 10 -5 -4 -7 -3 -12 3 -12 18 0 21 18 5 34 -8
9 -20 16 -25 16 -5 0 -15 11 -21 25 -11 24 -38 35 -38 15 0 -30 -62 3 -86 45
-8 14 -23 21 -50 22 -21 1 -40 7 -42 13 -2 5 -15 10 -28 10 -15 0 -24 6 -24
15 0 8 -11 17 -24 21 -16 4 -23 11 -19 20 6 16 -13 19 -22 4 -3 -5 -11 -10
-16 -10 -6 0 -7 5 -4 10 3 6 3 11 -2 11 -4 1 -21 3 -38 5 -16 2 -45 5 -63 7
-18 3 -35 1 -38 -5 -3 -5 -11 -4 -20 3 -7 6 -21 9 -29 5 -8 -3 -15 -1 -15 4 0
13 -50 13 -70 0 -9 -6 -19 -5 -28 2 -10 9 -16 8 -24 -3 -7 -11 -11 -11 -15 -1
-6 14 -23 16 -23 2z"/>
<path d="M6642 2982 c-28 -9 -39 -18 -35 -28 3 -8 -1 -14 -11 -14 -9 0 -16 7
-16 15 0 13 -22 21 -33 13 -2 -2 -11 3 -20 10 -16 13 -67 7 -67 -9 0 -5 -12
-4 -26 1 -31 12 -37 12 -30 1 3 -5 -4 -12 -17 -15 -20 -6 -19 -8 17 -26 21
-11 43 -17 48 -14 5 3 15 -1 21 -10 7 -9 26 -18 42 -20 17 -2 46 -9 65 -15 19
-6 42 -11 50 -11 13 0 13 1 0 10 -13 8 -12 10 5 11 11 1 28 2 38 1 11 -1 17 5
17 18 0 13 7 20 18 20 10 0 24 9 32 20 8 11 24 20 37 20 12 0 25 5 28 11 4 6
1 9 -6 8 -8 -1 -21 0 -29 4 -32 12 -90 12 -128 -1z"/>
<path d="M1392 948 c-13 -42 -33 -129 -36 -160 -2 -12 -8 -39 -14 -58 -6 -19
-14 -53 -18 -75 -3 -22 -8 -55 -11 -72 -3 -18 -9 -30 -14 -27 -8 5 -10 -1 -13
-51 -1 -11 -7 -29 -13 -40 -6 -12 -13 -34 -16 -50 -2 -17 -7 -38 -12 -48 -4
-10 -5 -20 -2 -23 3 -4 1 -18 -5 -33 -5 -14 -12 -46 -15 -71 -3 -25 -9 -50
-14 -56 -5 -6 -6 -14 -2 -17 3 -4 1 -7 -5 -7 -7 0 -12 -5 -12 -11 0 -5 5 -7
11 -4 5 4 1 -10 -10 -31 -11 -20 -18 -41 -14 -47 3 -5 0 -13 -8 -17 -10 -7
-10 -11 0 -23 10 -13 8 -16 -11 -20 -13 -3 5 -5 39 -4 34 0 60 4 57 9 -3 4 0
8 7 8 7 0 4 7 -7 15 -16 12 -16 14 -3 15 17 0 34 50 17 50 -5 0 -6 6 -1 13 9
14 11 28 17 107 2 30 8 80 15 110 6 30 13 78 16 105 6 60 21 150 25 150 1 0 3
9 4 20 6 47 19 114 32 165 16 66 36 201 30 207 -2 2 -9 -11 -14 -29z"/>
</g>
</svg>
